PathFileType	3	(X/Y/Z)	C:\Users\dbak576\Desktop\Duncan Bakke Modelling Files\Output\AB08\_12Mar_ss_12ms_01\AB08_12Mar_ss_12ms_01.trc
DataRate	CameraRate	NumFrames	NumMarkers	Units	OrigDataRate	OrigDataStartFrame	OrigNumFrames
200.0	200.0	7	42	mm	200.0	3437	3036	
Frame#	Time	LASI			RASI			LPSI			RPSI			LTH1			LTH2			LTH3			LTH4			LMFC			LLFC			LTB1			LTB2			LTB3			LTB4			LMMAL			LLMAL			LCAL			LToe			LMT1			LMT5			RTH1			RTH2			RTH3			RTH4			RMFC			RLFC			RTB1			RTB2			RTB3			RTB4			RMMAL			RLMAL			RCAL			RToe			RMT1			RMT5			C7			T10			LACR1			RACR1			CLAV			RBack			
		X1	Y1	Z1	X2	Y2	Z2	X3	Y3	Z3	X4	Y4	Z4	X5	Y5	Z5	X6	Y6	Z6	X7	Y7	Z7	X8	Y8	Z8	X9	Y9	Z9	X10	Y10	Z10	X11	Y11	Z11	X12	Y12	Z12	X13	Y13	Z13	X14	Y14	Z14	X15	Y15	Z15	X16	Y16	Z16	X17	Y17	Z17	X18	Y18	Z18	X19	Y19	Z19	X20	Y20	Z20	X21	Y21	Z21	X22	Y22	Z22	X23	Y23	Z23	X24	Y24	Z24	X25	Y25	Z25	X26	Y26	Z26	X27	Y27	Z27	X28	Y28	Z28	X29	Y29	Z29	X30	Y30	Z30	X31	Y31	Z31	X32	Y32	Z32	X33	Y33	Z33	X34	Y34	Z34	X35	Y35	Z35	X36	Y36	Z36	X37	Y37	Z37	X38	Y38	Z38	X39	Y39	Z39	X40	Y40	Z40	X41	Y41	Z41	X42	Y42	Z42	
3437	17.175	299.59958	946.51221	-913.42877	555.5791	966.50018	-936.53424	394.66965	983.63666	-700.92999	517.81818	976.30719	-709.93097	307.40125	658.41547	-884.93542	299.96249	631.00708	-856.88123	349.41003	587.36829	-848.79181	330.35825	619.3335	-867.42731	430.87592	508.52972	-765.25653	305.77875	516.91681	-734.47571	287.51273	423.27264	-690.47046	292.21503	343.29111	-663.8609	307.75641	330.53018	-714.29449	299.71078	370.50888	-714.93909	415.28647	125.72859	-646.6723	330.68265	122.06786	-624.58374	372.39825	62.674553	-544.21844	375.6853	38.328167	-848.37433	408.27002	46.945484	-757.84955	286.04236	39.481976	-734.65698	551.90399	745.45844	-1051.1838	548.57709	681.69287	-1071.2306	600.74597	652.04053	-1055.5369	600.04681	708.33051	-1040.3888	474.87842	539.31268	-1070.1427	603.27173	546.75867	-1043.0918	616.33716	440.43649	-1083.9774	605.79822	409.01517	-1105.9796	596.24829	362.98895	-1125.0536	623.55139	351.74969	-1079.825	518.41541	158.45564	-1157.1125	600.76068	134.09785	-1123.1749	539.59991	57.689663	-1082.4088	580.05347	152.29178	-1365.0338	537.37195	115.28641	-1287.1647	648.7937	105.5538	-1251.6764	400.42435	1484.585	-798.17847	404.16138	1235.4607	-712.12024	241.30692	1445.4575	-874.84674	562.37952	1455.5801	-835.29425	417.3338	1402.86	-944.74902	513.01733	1390.1571	-721.42212
3438	17.18	299.89581	944.93726	-912.7254	556.33521	964.79541	-936.48639	395.44012	982.39996	-700.48804	518.47748	974.91449	-709.93842	308.14856	657.36658	-882.78925	300.54565	629.97198	-854.47162	349.98605	586.45819	-846.05237	331.03427	618.34351	-864.93176	431.30042	508.03406	-761.82483	306.18964	516.6275	-731.32184	287.90479	423.27542	-686.96326	292.53845	343.39456	-659.8103	307.93494	330.2486	-709.94751	300.0592	370.32639	-711.01025	415.51202	125.98637	-640.9162	330.83914	122.42708	-618.79004	372.60803	63.069908	-538.28632	375.58081	38.17741	-842.42139	408.01071	46.89661	-751.89252	285.90277	39.491894	-728.50165	551.42627	743.54926	-1050.0709	547.86743	679.81592	-1070.1766	599.86615	649.92584	-1054.3832	599.98755	706.36035	-1039.6619	473.28302	537.54962	-1069.5507	602.06067	544.90521	-1042.4404	615.69849	440.13107	-1085.0536	605.00391	408.83701	-1107.8918	595.44519	363.08783	-1127.9849	622.48499	350.90628	-1082.9547	518.01685	159.40643	-1165.4939	600.25403	134.3304	-1131.3811	538.46625	56.80283	-1093.1122	581.9892	158.33548	-1372.8468	538.44324	119.41431	-1296.4237	649.67371	108.94408	-1259.9156	400.99524	1483.3519	-798.26947	404.68246	1234.3207	-712.01917	242.06015	1444.1229	-875.18713	563.03864	1454.255	-835.21686	418.10825	1401.4813	-944.7879	513.40125	1388.8975	-721.3703
3439	17.185	300.23083	943.52686	-912.19318	556.84216	962.94073	-936.30109	396.12717	981.13782	-700.1637	519.10498	973.60181	-709.85956	308.87677	656.29926	-880.71277	301.20273	629.08521	-852.35156	350.80524	585.75464	-843.47876	331.79919	617.44281	-862.60162	431.69052	507.49094	-758.63	306.41202	516.27277	-728.41266	288.30566	423.1857	-683.36621	292.95883	343.47397	-655.72729	308.29572	329.95245	-705.75134	300.2807	369.96677	-707.19025	415.62372	126.16476	-635.26288	330.93469	122.8189	-613.05133	372.71881	63.526543	-532.33838	375.71408	38.050213	-836.534	407.65411	46.818272	-746.16528	285.88403	39.457745	-722.34753	551.15723	741.62878	-1049.1548	547.41949	678.01776	-1069.2928	599.13348	647.84595	-1053.3206	599.41803	704.23993	-1038.521	471.6741	535.91083	-1069.1156	600.8457	543.06317	-1041.9091	614.79626	439.36954	-1086.1456	604.21295	408.55853	-1109.5811	594.76178	363.23782	-1130.7152	621.36841	350.06125	-1085.5953	517.59058	160.37379	-1173.4001	599.45752	134.55728	-1138.9564	537.3667	56.118126	-1103.1638	583.81799	164.04887	-1380.0472	539.40619	123.29301	-1305.0209	650.26392	112.21848	-1267.5177	401.586	1482.0813	-798.40759	405.27463	1233.1459	-712.03107	242.79851	1442.9186	-875.56519	563.68079	1452.9446	-835.20691	418.82016	1400.0792	-944.93561	513.76904	1387.5952	-721.36847
3440	17.19	300.59738	942.07117	-911.58789	557.50183	961.25232	-936.3385	396.92188	979.80011	-699.75684	519.84644	972.1911	-709.93365	309.54535	655.33136	-878.85065	301.77884	628.07526	-850.33673	351.30441	584.8244	-841.06024	332.49704	616.49738	-860.44391	432.00378	507.03943	-755.66382	306.71808	515.96808	-725.7854	288.45691	423.09085	-679.92975	293.26077	343.53323	-651.9248	308.60077	329.68304	-701.71429	300.42667	369.84006	-703.31714	415.84048	126.44118	-629.57007	331.05209	123.1982	-607.37598	372.92474	64.016487	-526.42645	376.07932	38.052532	-830.71545	408.83459	47.031429	-739.26849	285.63327	39.602459	-716.43408	551.21863	739.89172	-1048.4755	546.88367	676.26453	-1068.4941	598.37201	645.66034	-1052.1248	599.01666	702.09515	-1037.4104	470.24146	534.32654	-1068.4733	599.81281	541.16632	-1041.3983	613.78552	438.4726	-1086.8243	603.31519	408.15765	-1111.066	594.12494	363.2771	-1133.2778	620.26099	349.20581	-1088.2097	516.93744	161.36792	-1180.6863	598.29724	134.73126	-1145.97	536.17963	55.501015	-1112.4554	585.53442	169.26035	-1386.4916	540.38715	126.82569	-1312.8267	650.68481	115.24873	-1274.3457	402.25198	1480.8118	-798.55115	405.9256	1232.0159	-711.98517	243.58305	1441.5466	-876.01068	564.37036	1451.5928	-835.18121	419.60278	1398.6689	-945.0733	514.21472	1386.2676	-721.38898
3441	17.195	300.89603	940.68353	-911.10339	558.04877	959.52582	-936.30145	397.71997	978.48022	-699.4939	520.6897	970.79944	-710.09943	310.11136	654.19299	-877.13501	302.34653	627.12933	-848.51495	351.86588	584.08087	-838.90051	332.9238	615.55859	-858.578	432.41418	506.58691	-752.88153	306.94281	515.53802	-723.13434	288.87753	423.07736	-676.86292	293.37265	343.73538	-647.99078	308.80685	329.48801	-697.83167	300.67349	369.55362	-699.75568	415.96503	126.70792	-624.05841	331.12164	123.63601	-601.73914	373.05334	64.608116	-520.52631	375.76819	38.002884	-824.48273	408.80524	46.976475	-733.24255	285.85056	39.457367	-710.09851	551.24164	738.1554	-1047.9105	546.50323	674.45435	-1067.8256	597.61615	643.52893	-1051.2573	598.70404	700.00232	-1036.4542	468.99713	532.97369	-1068.0029	598.80243	539.34473	-1040.9565	612.92151	437.50137	-1087.5677	602.70325	407.66782	-1112.4385	593.48944	363.12494	-1135.4779	619.16901	348.21722	-1090.407	516.17474	162.25101	-1187.3636	597.43237	135.02147	-1152.3372	534.92859	55.045586	-1121.0581	587.00177	174.02069	-1392.2882	541.22162	130.11864	-1319.9846	650.99957	118.07544	-1280.4998	402.89319	1479.504	-798.69971	406.39838	1230.8723	-711.88458	244.37852	1440.2278	-876.38239	565.0647	1450.2388	-835.24194	420.41235	1397.2468	-945.22668	514.71051	1384.9106	-721.41113
3442	17.2	301.33313	939.32697	-910.7052	558.56329	957.77777	-936.32367	398.5722	977.08209	-699.19513	521.55035	969.37592	-710.25897	310.62628	653.16901	-875.55414	302.84607	626.14557	-846.93158	352.51376	583.22327	-836.90497	333.16641	614.71942	-857.03857	432.64746	506.14603	-750.18646	307.39532	515.10022	-720.8255	289.09637	422.8381	-673.5647	293.58115	343.84091	-644.32306	308.96591	329.15457	-694.03271	301.12714	369.22345	-696.07526	416.11618	127.02417	-618.42303	331.24487	124.12524	-596.16309	373.29941	65.22963	-514.67242	375.80804	37.922142	-818.45703	407.67545	46.865471	-727.30933	285.56964	39.605656	-704.17572	551.4762	736.48645	-1047.4419	546.29236	672.81964	-1067.3514	597.06799	641.43085	-1050.2955	598.55701	698.00848	-1035.6538	467.81671	531.80164	-1067.614	597.91949	537.53455	-1040.5623	612.03351	436.49155	-1088.2625	601.93347	407.05634	-1113.733	592.73096	362.92154	-1137.4727	618.13788	347.31863	-1092.4934	515.30853	163.09323	-1193.3695	596.11456	135.22594	-1158.058	533.55365	54.725025	-1128.2512	588.38873	178.33308	-1397.1875	541.79932	133.08618	-1326.4374	650.69958	120.39953	-1285.9307	403.59161	1478.2466	-798.88678	407.10718	1229.7574	-711.89008	245.20624	1438.9044	-876.78778	565.79517	1448.8845	-835.30157	421.26044	1395.8151	-945.4292	515.28632	1383.6027	-721.53418
3443	17.205	301.6582	937.95313	-910.23352	559.05096	956.14539	-936.42334	399.33954	975.69928	-698.91705	522.39355	967.9621	-710.49475	311.13757	652.07361	-874.04663	303.37521	625.22565	-845.43182	353.21527	582.46393	-835.16852	333.32101	613.76062	-855.612	432.90109	505.77713	-747.81946	307.65857	514.59583	-718.57367	289.39777	422.81693	-670.35107	293.80771	343.97931	-640.53674	309.15854	328.9053	-690.10522	301.15137	369.07019	-692.52332	416.26901	127.38706	-612.89117	331.3588	124.62018	-590.56482	373.41336	65.954926	-508.79193	375.73367	37.772007	-812.33405	407.5759	46.857727	-721.32257	285.48935	39.621571	-698.07056	551.70221	734.89655	-1047.076	546.19202	671.20483	-1066.7889	596.57263	639.51538	-1049.5289	598.46051	696.12219	-1035.0558	466.63583	530.8114	-1067.3784	597.13086	535.77032	-1040.1714	611.26898	435.38855	-1088.7068	601.31793	406.41937	-1114.7051	592.1665	362.68103	-1139.184	617.11322	346.17282	-1094.3444	514.3183	163.79413	-1198.7712	594.70685	135.15416	-1163.1061	532.03131	54.255318	-1135.7545	589.41125	182.04982	-1401.2981	542.1604	135.7092	-1332.1235	650.65717	122.53953	-1290.6333	404.36392	1476.9465	-799.03937	407.7756	1228.5775	-711.84222	246.09695	1437.5687	-877.17157	566.61389	1447.5009	-835.42249	422.04459	1394.3809	-945.62256	515.79468	1382.2203	-721.61389
